<svg width="800" height="400" viewBox="0 0 800 400" xmlns="http://www.w3.org/2000/svg"><mask id="satori_om-id"><rect x="0" y="0" width="800" height="400" fill="#fff"/></mask><rect x="0" y="0" width="800" height="400" fill="#1e1e1e"/><clipPath id="satori_cp-id-0"><rect x="363" y="108" width="75" height="75"/></clipPath><mask id="satori_om-id-0"><rect x="363" y="108" width="75" height="75" fill="#fff"/></mask><image x="363" y="108" width="75" height="75" href="data:image/svg+xml;utf8,%3Csvg  fill=%22%23ffffff%22 xmlns=%22http://www.w3.org/2000/svg%22 width=%22NaN%22 height=%22null%22 viewBox=%220 0 64 64%22%3E%3Cg%3E%3Ccircle cx=%2232%22 cy=%2232%22 r=%224%22%3E%3C/circle%3E%3Crect x=%2230%22 y=%228%22 width=%224%22 height=%2216%22%3E%3C/rect%3E%3Crect x=%2230%22 y=%2240%22 width=%224%22 height=%2216%22%3E%3C/rect%3E%3Crect x=%228%22 y=%2230%22 width=%2216%22 height=%224%22%3E%3C/rect%3E%3Crect x=%2240%22 y=%2230%22 width=%2216%22 height=%224%22%3E%3C/rect%3E%3Crect x=%2226%22 y=%2226%22 width=%2212%22 height=%2212%22%3E%3C/rect%3E%3Ccircle cx=%2216%22 cy=%2216%22 r=%222%22%3E%3C/circle%3E%3Ccircle cx=%2248%22 cy=%2216%22 r=%222%22%3E%3C/circle%3E%3Ccircle cx=%2216%22 cy=%2248%22 r=%222%22%3E%3C/circle%3E%3Ccircle cx=%2248%22 cy=%2248%22 r=%222%22%3E%3C/circle%3E%3C/g%3E%3C/svg%3E" preserveAspectRatio="none" clip-path="url(#satori_cp-id-0)" mask="url(#satori_om-id-0)"/><mask id="satori_om-id-0-0"><rect x="363" y="108" width="0" height="75" fill="#fff"/></mask><mask id="satori_om-id-0-0-0"><rect x="363" y="108" width="0" height="75" fill="#fff"/></mask><mask id="satori_om-id-0-0-1"><rect x="363" y="108" width="0" height="75" fill="#fff"/></mask><mask id="satori_om-id-0-0-2"><rect x="363" y="108" width="0" height="75" fill="#fff"/></mask><mask id="satori_om-id-0-0-3"><rect x="363" y="108" width="0" height="75" fill="#fff"/></mask><mask id="satori_om-id-0-0-4"><rect x="363" y="108" width="0" height="75" fill="#fff"/></mask><mask id="satori_om-id-0-0-5"><rect x="363" y="108" width="0" height="75" fill="#fff"/></mask><mask id="satori_om-id-0-0-6"><rect x="363" y="108" width="0" height="75" fill="#fff"/></mask><mask id="satori_om-id-0-0-7"><rect x="363" y="108" width="0" height="75" fill="#fff"/></mask><mask id="satori_om-id-0-0-8"><rect x="363" y="108" width="0" height="75" fill="#fff"/></mask><mask id="satori_om-id-0-0-9"><rect x="363" y="108" width="0" height="75" fill="#fff"/></mask><mask id="satori_om-id-1"><rect x="308" y="207" width="184" height="39" fill="#fff"/></mask><path fill="#ffffff" d="M330.6 222.9L330.6 222.9L325.6 222.9Q325.4 221.9 325.0 221.2Q324.6 220.4 323.9 219.9Q323.3 219.3 322.4 219.0Q321.6 218.8 320.6 218.8L320.6 218.8Q318.8 218.8 317.4 219.7Q316.1 220.5 315.3 222.2Q314.6 223.9 314.6 226.4L314.6 226.4Q314.6 228.9 315.3 230.5Q316.1 232.2 317.4 233.1Q318.8 234.0 320.5 234.0L320.5 234.0Q321.5 234.0 322.4 233.7Q323.2 233.4 323.9 232.9Q324.5 232.4 325.0 231.7Q325.4 231.0 325.6 230.0L325.6 230.0L330.6 230.1Q330.4 231.7 329.6 233.2Q328.8 234.6 327.5 235.8Q326.3 237.0 324.5 237.6Q322.7 238.3 320.5 238.3L320.5 238.3Q317.3 238.3 314.9 236.9Q312.4 235.5 311.0 232.8Q309.6 230.2 309.6 226.4L309.6 226.4Q309.6 222.6 311.0 219.9Q312.5 217.2 314.9 215.8Q317.4 214.4 320.5 214.4L320.5 214.4Q322.5 214.4 324.2 215.0Q325.9 215.5 327.3 216.6Q328.6 217.7 329.5 219.3Q330.3 220.9 330.6 222.9ZM341.9 238.3L341.9 238.3Q339.2 238.3 337.3 237.2Q335.4 236.1 334.3 234.1Q333.3 232.0 333.3 229.3L333.3 229.3Q333.3 226.6 334.3 224.6Q335.4 222.6 337.3 221.4Q339.2 220.3 341.9 220.3L341.9 220.3Q344.5 220.3 346.5 221.4Q348.4 222.6 349.4 224.6Q350.5 226.6 350.5 229.3L350.5 229.3Q350.5 232.0 349.4 234.1Q348.4 236.1 346.5 237.2Q344.5 238.3 341.9 238.3ZM341.9 234.6L341.9 234.6Q343.1 234.6 343.9 233.9Q344.7 233.2 345.1 232.0Q345.6 230.8 345.6 229.3L345.6 229.3Q345.6 227.8 345.1 226.6Q344.7 225.4 343.9 224.7Q343.1 224.0 341.9 224.0L341.9 224.0Q340.7 224.0 339.9 224.7Q339.0 225.4 338.6 226.6Q338.2 227.8 338.2 229.3L338.2 229.3Q338.2 230.8 338.6 232.0Q339.0 233.2 339.9 233.9Q340.7 234.6 341.9 234.6ZM358.5 244.5L353.6 244.5L353.6 220.5L358.4 220.5L358.4 223.5L358.6 223.5Q358.9 222.8 359.6 222.0Q360.2 221.3 361.1 220.8Q362.1 220.3 363.6 220.3L363.6 220.3Q365.5 220.3 367.1 221.3Q368.7 222.3 369.7 224.3Q370.7 226.3 370.7 229.3L370.7 229.3Q370.7 232.2 369.7 234.2Q368.8 236.2 367.2 237.3Q365.6 238.3 363.6 238.3L363.6 238.3Q362.2 238.3 361.2 237.8Q360.2 237.4 359.6 236.6Q359.0 235.9 358.6 235.2L358.6 235.2L358.5 235.2L358.5 244.5ZM358.4 229.3L358.4 229.3Q358.4 230.8 358.8 232.0Q359.2 233.1 360.1 233.8Q360.9 234.4 362.0 234.4L362.0 234.4Q363.2 234.4 364.0 233.8Q364.9 233.1 365.3 232.0Q365.7 230.8 365.7 229.3L365.7 229.3Q365.7 227.8 365.3 226.6Q364.9 225.5 364.1 224.8Q363.2 224.2 362.0 224.2L362.0 224.2Q360.9 224.2 360.1 224.8Q359.2 225.4 358.8 226.6Q358.4 227.7 358.4 229.3ZM372.6 220.5L383.2 220.5L383.2 224.2L372.6 224.2L372.6 220.5ZM375.0 233.3L375.0 216.4L379.9 216.4L379.9 232.6Q379.9 233.3 380.1 233.7Q380.3 234.0 380.7 234.2Q381.0 234.3 381.5 234.3L381.5 234.3Q381.9 234.3 382.2 234.3Q382.5 234.2 382.7 234.2L382.7 234.2L383.5 237.8Q383.1 237.9 382.5 238.1Q381.8 238.2 380.9 238.2L380.9 238.2Q379.1 238.3 377.8 237.8Q376.5 237.2 375.8 236.1Q375.0 235.0 375.0 233.3L375.0 233.3ZM391.1 238L386.3 238L386.3 220.5L391.1 220.5L391.1 238ZM388.7 218.3L388.7 218.3Q387.7 218.3 386.9 217.6Q386.1 216.9 386.1 215.8L386.1 215.8Q386.1 214.8 386.9 214.1Q387.7 213.4 388.7 213.4L388.7 213.4Q389.8 213.4 390.6 214.1Q391.4 214.8 391.4 215.8L391.4 215.8Q391.4 216.9 390.6 217.6Q389.8 218.3 388.7 218.3ZM402.9 238.3L402.9 238.3Q400.2 238.3 398.3 237.2Q396.4 236.1 395.3 234.0Q394.3 232.0 394.3 229.3L394.3 229.3Q394.3 226.7 395.3 224.6Q396.4 222.6 398.3 221.5Q400.2 220.3 402.9 220.3L402.9 220.3Q405.2 220.3 406.9 221.1Q408.6 222.0 409.6 223.5Q410.6 225.0 410.7 227L410.7 227L406.1 227Q405.9 225.7 405.1 224.9Q404.3 224.1 403.0 224.1L403.0 224.1Q401.8 224.1 401.0 224.7Q400.2 225.3 399.7 226.5Q399.2 227.6 399.2 229.3L399.2 229.3Q399.2 230.9 399.7 232.1Q400.1 233.3 401.0 233.9Q401.8 234.5 403.0 234.5L403.0 234.5Q403.8 234.5 404.4 234.2Q405.1 233.8 405.6 233.2Q406.0 232.5 406.1 231.6L406.1 231.6L410.7 231.6Q410.6 233.6 409.6 235.1Q408.6 236.6 406.9 237.5Q405.2 238.3 402.9 238.3Z M426.2 238L421.3 238L421.3 214.7L430.5 214.7Q433.1 214.7 435.0 215.7Q436.9 216.6 437.9 218.3Q438.8 220.0 438.8 222.3L438.8 222.3Q438.8 224.6 437.8 226.3Q436.8 228.0 434.9 228.9Q433.1 229.8 430.4 229.8L430.4 229.8L424.2 229.8L424.2 225.8L429.6 225.8Q431.0 225.8 431.9 225.4Q432.9 225.0 433.3 224.3Q433.8 223.5 433.8 222.3L433.8 222.3Q433.8 221.2 433.3 220.4Q432.9 219.6 431.9 219.2Q431.0 218.8 429.6 218.8L429.6 218.8L426.2 218.8L426.2 238ZM428.6 227.4L433.9 227.4L439.7 238L434.2 238L428.6 227.4ZM449.8 238.3L449.8 238.3Q447.2 238.3 445.2 237.2Q443.3 236.1 442.3 234.1Q441.2 232.0 441.2 229.3L441.2 229.3Q441.2 226.6 442.3 224.6Q443.3 222.6 445.2 221.4Q447.2 220.3 449.8 220.3L449.8 220.3Q452.5 220.3 454.4 221.4Q456.3 222.6 457.4 224.6Q458.4 226.6 458.4 229.3L458.4 229.3Q458.4 232.0 457.4 234.1Q456.3 236.1 454.4 237.2Q452.5 238.3 449.8 238.3ZM449.8 234.6L449.8 234.6Q451.0 234.6 451.9 233.9Q452.7 233.2 453.1 232.0Q453.5 230.8 453.5 229.3L453.5 229.3Q453.5 227.8 453.1 226.6Q452.7 225.4 451.9 224.7Q451.0 224.0 449.8 224.0L449.8 224.0Q448.6 224.0 447.8 224.7Q447.0 225.4 446.6 226.6Q446.1 227.8 446.1 229.3L446.1 229.3Q446.1 230.8 446.6 232.0Q447.0 233.2 447.8 233.9Q448.6 234.6 449.8 234.6ZM469.5 238.3L469.5 238.3Q466.8 238.3 464.9 237.2Q463.0 236.1 461.9 234.1Q460.9 232.0 460.9 229.3L460.9 229.3Q460.9 226.6 461.9 224.6Q463.0 222.6 464.9 221.4Q466.8 220.3 469.5 220.3L469.5 220.3Q472.1 220.3 474.0 221.4Q476.0 222.6 477.0 224.6Q478.0 226.6 478.0 229.3L478.0 229.3Q478.0 232.0 477.0 234.1Q476.0 236.1 474.0 237.2Q472.1 238.3 469.5 238.3ZM469.5 234.6L469.5 234.6Q470.7 234.6 471.5 233.9Q472.3 233.2 472.7 232.0Q473.1 230.8 473.1 229.3L473.1 229.3Q473.1 227.8 472.7 226.6Q472.3 225.4 471.5 224.7Q470.7 224.0 469.5 224.0L469.5 224.0Q468.3 224.0 467.4 224.7Q466.6 225.4 466.2 226.6Q465.8 227.8 465.8 229.3L465.8 229.3Q465.8 230.8 466.2 232.0Q466.6 233.2 467.4 233.9Q468.3 234.6 469.5 234.6ZM480.0 220.5L490.5 220.5L490.5 224.2L480.0 224.2L480.0 220.5ZM482.4 233.3L482.4 216.4L487.2 216.4L487.2 232.6Q487.2 233.3 487.4 233.7Q487.6 234.0 488.0 234.2Q488.4 234.3 488.8 234.3L488.8 234.3Q489.2 234.3 489.5 234.3Q489.9 234.2 490.0 234.2L490.0 234.2L490.8 237.8Q490.4 237.9 489.8 238.1Q489.1 238.2 488.2 238.2L488.2 238.2Q486.4 238.3 485.1 237.8Q483.8 237.2 483.1 236.1Q482.4 235.0 482.4 233.3L482.4 233.3Z "/><mask id="satori_om-id-2"><rect x="240" y="254" width="320" height="38" fill="#fff"/></mask><path fill="#ffffff" d="M280.8 257.9L282.2 257.9L282.2 269.5L280.8 269.5L280.8 257.9ZM286.2 264.3L286.2 264.3L286.2 269.5L284.9 269.5L284.9 260.8L286.1 260.8L286.1 262.1L286.3 262.1Q286.6 261.5 287.2 261.1Q287.8 260.7 288.8 260.7L288.8 260.7Q289.7 260.7 290.4 261.0Q291.0 261.4 291.4 262.1Q291.8 262.8 291.8 264.0L291.8 264.0L291.8 269.5L290.4 269.5L290.4 264.0Q290.4 263.0 289.9 262.4Q289.4 261.9 288.4 261.9L288.4 261.9Q287.8 261.9 287.3 262.1Q286.8 262.4 286.5 263.0Q286.2 263.5 286.2 264.3ZM295.6 269.5L294.2 269.5L294.2 260.8L295.6 260.8L295.6 269.5ZM294.9 259.3L294.9 259.3Q294.5 259.3 294.2 259.1Q293.9 258.8 293.9 258.4L293.9 258.4Q293.9 258.0 294.2 257.8Q294.5 257.5 294.9 257.5L294.9 257.5Q295.3 257.5 295.6 257.8Q295.9 258.0 295.9 258.4L295.9 258.4Q295.9 258.8 295.6 259.1Q295.3 259.3 294.9 259.3ZM297.3 260.8L301.8 260.8L301.8 261.9L297.3 261.9L297.3 260.8ZM298.6 267.4L298.6 258.7L299.9 258.7L299.9 267Q299.9 267.6 300.1 267.8Q300.3 268.1 300.5 268.2Q300.8 268.3 301.1 268.3L301.1 268.3Q301.3 268.3 301.5 268.3Q301.6 268.3 301.7 268.3L301.7 268.3L302.0 269.5Q301.8 269.5 301.6 269.6Q301.3 269.6 301.0 269.6L301.0 269.6Q300.4 269.6 299.9 269.4Q299.3 269.1 299.0 268.6Q298.6 268.1 298.6 267.4L298.6 267.4ZM305.2 269.5L303.8 269.5L303.8 260.8L305.2 260.8L305.2 269.5ZM304.5 259.3L304.5 259.3Q304.1 259.3 303.8 259.1Q303.6 258.8 303.6 258.4L303.6 258.4Q303.6 258.0 303.8 257.8Q304.1 257.5 304.5 257.5L304.5 257.5Q304.9 257.5 305.2 257.8Q305.5 258.0 305.5 258.4L305.5 258.4Q305.5 258.8 305.2 259.1Q304.9 259.3 304.5 259.3ZM310.2 269.7L310.2 269.7Q309.4 269.7 308.7 269.4Q308.0 269.1 307.6 268.5Q307.2 267.9 307.2 267.0L307.2 267.0Q307.2 266.3 307.5 265.8Q307.8 265.3 308.3 265.1Q308.8 264.8 309.4 264.7Q310.0 264.5 310.6 264.5L310.6 264.5Q311.4 264.4 311.9 264.3Q312.4 264.2 312.6 264.1Q312.9 264.0 312.9 263.7L312.9 263.7L312.9 263.6Q312.9 262.8 312.4 262.3Q311.9 261.8 311.0 261.8L311.0 261.8Q310.1 261.8 309.5 262.3Q309.0 262.7 308.7 263.2L308.7 263.2L307.5 262.7Q307.8 261.9 308.4 261.5Q308.9 261.0 309.6 260.8Q310.3 260.7 311.0 260.7L311.0 260.7Q311.4 260.7 311.9 260.8Q312.5 260.9 313.0 261.2Q313.5 261.5 313.9 262.1Q314.2 262.7 314.2 263.8L314.2 263.8L314.2 269.5L312.9 269.5L312.9 268.3L312.8 268.3Q312.6 268.6 312.3 268.9Q312.0 269.3 311.5 269.5Q311.0 269.7 310.2 269.7ZM310.4 268.5L310.4 268.5Q311.2 268.5 311.7 268.2Q312.3 267.9 312.6 267.4Q312.9 266.9 312.9 266.3L312.9 266.3L312.9 265.1Q312.8 265.2 312.5 265.3Q312.2 265.4 311.8 265.4Q311.4 265.5 311.1 265.5Q310.8 265.6 310.5 265.6L310.5 265.6Q310.0 265.7 309.6 265.8Q309.1 266.0 308.8 266.3Q308.6 266.6 308.6 267.1L308.6 267.1Q308.6 267.8 309.1 268.1Q309.6 268.5 310.4 268.5ZM315.9 260.8L320.4 260.8L320.4 261.9L315.9 261.9L315.9 260.8ZM317.2 267.4L317.2 258.7L318.6 258.7L318.6 267Q318.6 267.6 318.7 267.8Q318.9 268.1 319.2 268.2Q319.4 268.3 319.7 268.3L319.7 268.3Q320.0 268.3 320.1 268.3Q320.2 268.3 320.3 268.3L320.3 268.3L320.6 269.5Q320.5 269.5 320.2 269.6Q320.0 269.6 319.6 269.6L319.6 269.6Q319.0 269.6 318.5 269.4Q317.9 269.1 317.6 268.6Q317.2 268.1 317.2 267.4L317.2 267.4ZM323.8 269.5L322.5 269.5L322.5 260.8L323.8 260.8L323.8 269.5ZM323.1 259.3L323.1 259.3Q322.8 259.3 322.5 259.1Q322.2 258.8 322.2 258.4L322.2 258.4Q322.2 258.0 322.5 257.8Q322.8 257.5 323.1 257.5L323.1 257.5Q323.5 257.5 323.8 257.8Q324.1 258.0 324.1 258.4L324.1 258.4Q324.1 258.8 323.8 259.1Q323.5 259.3 323.1 259.3ZM331.9 260.8L333.4 260.8L330.2 269.5L328.8 269.5L325.6 260.8L327.0 260.8L329.4 267.7L329.5 267.7L331.9 260.8ZM338.5 269.7L338.5 269.7Q337.3 269.7 336.3 269.1Q335.4 268.6 334.9 267.6Q334.4 266.5 334.4 265.2L334.4 265.2Q334.4 263.9 334.9 262.8Q335.4 261.8 336.3 261.2Q337.2 260.7 338.4 260.7L338.4 260.7Q339.1 260.7 339.7 260.9Q340.4 261.1 340.9 261.6Q341.5 262.1 341.8 263.0Q342.1 263.8 342.1 265.0L342.1 265.0L342.1 265.6L335.4 265.6L335.4 264.4L340.8 264.4Q340.8 263.7 340.5 263.1Q340.2 262.5 339.6 262.2Q339.1 261.9 338.4 261.9L338.4 261.9Q337.6 261.9 337.0 262.3Q336.4 262.7 336.1 263.3Q335.8 263.9 335.8 264.6L335.8 264.6L335.8 265.4Q335.8 266.4 336.1 267.1Q336.5 267.8 337.1 268.1Q337.7 268.5 338.5 268.5L338.5 268.5Q339.0 268.5 339.5 268.3Q339.9 268.2 340.2 267.9Q340.5 267.6 340.7 267.1L340.7 267.1L342.0 267.5Q341.8 268.1 341.3 268.6Q340.8 269.1 340.1 269.4Q339.4 269.7 338.5 269.7Z M348.3 260.8L352.8 260.8L352.8 261.9L348.3 261.9L348.3 260.8ZM349.6 267.4L349.6 258.7L350.9 258.7L350.9 267Q350.9 267.6 351.1 267.8Q351.3 268.1 351.5 268.2Q351.8 268.3 352.1 268.3L352.1 268.3Q352.3 268.3 352.4 268.3Q352.6 268.3 352.7 268.3L352.7 268.3L352.9 269.5Q352.8 269.5 352.6 269.6Q352.3 269.6 351.9 269.6L351.9 269.6Q351.4 269.6 350.8 269.4Q350.3 269.1 349.9 268.6Q349.6 268.1 349.6 267.4L349.6 267.4ZM358.3 269.7L358.3 269.7Q357.1 269.7 356.2 269.1Q355.3 268.6 354.8 267.5Q354.3 266.5 354.3 265.2L354.3 265.2Q354.3 263.8 354.8 262.8Q355.3 261.8 356.2 261.2Q357.1 260.7 358.3 260.7L358.3 260.7Q359.4 260.7 360.3 261.2Q361.2 261.8 361.7 262.8Q362.2 263.8 362.2 265.2L362.2 265.2Q362.2 266.5 361.7 267.5Q361.2 268.6 360.3 269.1Q359.4 269.7 358.3 269.7ZM358.3 268.5L358.3 268.5Q359.2 268.5 359.7 268.0Q360.3 267.6 360.6 266.8Q360.9 266.1 360.9 265.2L360.9 265.2Q360.9 264.3 360.6 263.6Q360.3 262.8 359.7 262.3Q359.2 261.9 358.3 261.9L358.3 261.9Q357.4 261.9 356.8 262.3Q356.2 262.8 355.9 263.6Q355.6 264.3 355.6 265.2L355.6 265.2Q355.6 266.1 355.9 266.8Q356.2 267.6 356.8 268.0Q357.4 268.5 358.3 268.5Z M372.4 273.0L372.4 273.0Q371.4 273.0 370.7 272.7Q370.0 272.5 369.5 272.1Q369.1 271.7 368.8 271.2L368.8 271.2L369.9 270.5Q370.1 270.7 370.3 271.0Q370.6 271.3 371.1 271.5Q371.6 271.8 372.4 271.8L372.4 271.8Q373.4 271.8 374.1 271.3Q374.8 270.8 374.8 269.7L374.8 269.7L374.8 267.9L374.7 267.9Q374.5 268.1 374.3 268.5Q374.0 268.8 373.5 269.1Q373 269.4 372.1 269.4L372.1 269.4Q371.1 269.4 370.3 268.9Q369.4 268.4 368.9 267.4Q368.4 266.5 368.4 265.1L368.4 265.1Q368.4 263.8 368.9 262.8Q369.4 261.8 370.2 261.2Q371.1 260.7 372.2 260.7L372.2 260.7Q373.0 260.7 373.5 260.9Q374.0 261.2 374.3 261.6Q374.6 261.9 374.7 262.2L374.7 262.2L374.9 262.2L374.9 260.8L376.1 260.8L376.1 269.8Q376.1 270.9 375.6 271.6Q375.1 272.3 374.3 272.6Q373.4 273.0 372.4 273.0ZM372.3 268.2L372.3 268.2Q373.1 268.2 373.7 267.8Q374.3 267.4 374.5 266.7Q374.8 266.0 374.8 265.1L374.8 265.1Q374.8 264.1 374.5 263.4Q374.3 262.7 373.7 262.3Q373.1 261.9 372.3 261.9L372.3 261.9Q371.5 261.9 370.9 262.3Q370.3 262.7 370.1 263.5Q369.8 264.2 369.8 265.1L369.8 265.1Q369.8 266.0 370.1 266.7Q370.4 267.4 370.9 267.8Q371.5 268.2 372.3 268.2ZM381.2 269.7L381.2 269.7Q380.3 269.7 379.7 269.4Q379.0 269.1 378.6 268.5Q378.2 267.9 378.2 267.0L378.2 267.0Q378.2 266.3 378.5 265.8Q378.8 265.3 379.3 265.1Q379.8 264.8 380.4 264.7Q381.0 264.5 381.6 264.5L381.6 264.5Q382.4 264.4 382.9 264.3Q383.4 264.2 383.6 264.1Q383.8 264.0 383.8 263.7L383.8 263.7L383.8 263.6Q383.8 262.8 383.4 262.3Q382.9 261.8 382.0 261.8L382.0 261.8Q381.0 261.8 380.5 262.3Q379.9 262.7 379.7 263.2L379.7 263.2L378.4 262.7Q378.8 261.9 379.4 261.5Q379.9 261.0 380.6 260.8Q381.3 260.7 381.9 260.7L381.9 260.7Q382.4 260.7 382.9 260.8Q383.5 260.9 384.0 261.2Q384.5 261.5 384.8 262.1Q385.2 262.7 385.2 263.8L385.2 263.8L385.2 269.5L383.8 269.5L383.8 268.3L383.8 268.3Q383.6 268.6 383.3 268.9Q383.0 269.3 382.5 269.5Q381.9 269.7 381.2 269.7ZM381.4 268.5L381.4 268.5Q382.2 268.5 382.7 268.2Q383.3 267.9 383.5 267.4Q383.8 266.9 383.8 266.3L383.8 266.3L383.8 265.1Q383.7 265.2 383.5 265.3Q383.2 265.4 382.8 265.4Q382.4 265.5 382.1 265.5Q381.7 265.6 381.5 265.6L381.5 265.6Q381.0 265.7 380.5 265.8Q380.1 266.0 379.8 266.3Q379.5 266.6 379.5 267.1L379.5 267.1Q379.5 267.8 380.1 268.1Q380.6 268.5 381.4 268.5ZM386.9 260.8L391.4 260.8L391.4 261.9L386.9 261.9L386.9 260.8ZM388.2 267.4L388.2 258.7L389.6 258.7L389.6 267Q389.6 267.6 389.7 267.8Q389.9 268.1 390.2 268.2Q390.4 268.3 390.7 268.3L390.7 268.3Q390.9 268.3 391.1 268.3Q391.2 268.3 391.3 268.3L391.3 268.3L391.6 269.5Q391.4 269.5 391.2 269.6Q391.0 269.6 390.6 269.6L390.6 269.6Q390.0 269.6 389.5 269.4Q388.9 269.1 388.6 268.6Q388.2 268.1 388.2 267.4L388.2 267.4ZM395.0 264.3L395.0 264.3L395.0 269.5L393.6 269.5L393.6 257.9L395.0 257.9L395.0 262.1L395.1 262.1Q395.4 261.5 396.0 261.1Q396.6 260.7 397.6 260.7L397.6 260.7Q398.5 260.7 399.2 261.0Q399.9 261.4 400.3 262.1Q400.6 262.8 400.6 264.0L400.6 264.0L400.6 269.5L399.3 269.5L399.3 264.0Q399.3 263.0 398.7 262.4Q398.2 261.9 397.3 261.9L397.3 261.9Q396.6 261.9 396.1 262.1Q395.6 262.4 395.3 263.0Q395.0 263.5 395.0 264.3ZM406.7 269.7L406.7 269.7Q405.5 269.7 404.6 269.1Q403.7 268.6 403.2 267.6Q402.7 266.5 402.7 265.2L402.7 265.2Q402.7 263.9 403.2 262.8Q403.7 261.8 404.5 261.2Q405.4 260.7 406.6 260.7L406.6 260.7Q407.3 260.7 407.9 260.9Q408.6 261.1 409.2 261.6Q409.7 262.1 410.0 263.0Q410.4 263.8 410.4 265.0L410.4 265.0L410.4 265.6L403.6 265.6L403.6 264.4L409.0 264.4Q409.0 263.7 408.7 263.1Q408.4 262.5 407.9 262.2Q407.3 261.9 406.6 261.9L406.6 261.9Q405.8 261.9 405.2 262.3Q404.6 262.7 404.3 263.3Q404.0 263.9 404.0 264.6L404.0 264.6L404.0 265.4Q404.0 266.4 404.4 267.1Q404.7 267.8 405.3 268.1Q405.9 268.5 406.7 268.5L406.7 268.5Q407.3 268.5 407.7 268.3Q408.1 268.2 408.4 267.9Q408.7 267.6 408.9 267.1L408.9 267.1L410.2 267.5Q410.0 268.1 409.5 268.6Q409.0 269.1 408.3 269.4Q407.6 269.7 406.7 269.7ZM413.7 269.5L412.4 269.5L412.4 260.8L413.7 260.8L413.7 262.1L413.8 262.1Q414.0 261.4 414.6 261.0Q415.3 260.6 416.1 260.6L416.1 260.6Q416.2 260.6 416.4 260.6Q416.6 260.6 416.8 260.7L416.8 260.7L416.8 262.0Q416.7 262.0 416.5 262.0Q416.2 261.9 415.9 261.9L415.9 261.9Q415.3 261.9 414.8 262.2Q414.3 262.5 414.0 262.9Q413.7 263.4 413.7 264.0L413.7 264.0L413.7 269.5Z M426.2 269.7L426.2 269.7Q425.0 269.7 424.1 269.1Q423.3 268.6 422.8 267.5Q422.3 266.5 422.3 265.2L422.3 265.2Q422.3 263.8 422.8 262.8Q423.3 261.8 424.1 261.2Q425.0 260.7 426.2 260.7L426.2 260.7Q427.4 260.7 428.3 261.2Q429.2 261.8 429.7 262.8Q430.2 263.8 430.2 265.2L430.2 265.2Q430.2 266.5 429.7 267.5Q429.2 268.6 428.3 269.1Q427.4 269.7 426.2 269.7ZM426.2 268.5L426.2 268.5Q427.1 268.5 427.7 268.0Q428.3 267.6 428.6 266.8Q428.8 266.1 428.8 265.2L428.8 265.2Q428.8 264.3 428.6 263.6Q428.3 262.8 427.7 262.3Q427.1 261.9 426.2 261.9L426.2 261.9Q425.3 261.9 424.7 262.3Q424.2 262.8 423.9 263.6Q423.6 264.3 423.6 265.2L423.6 265.2Q423.6 266.1 423.9 266.8Q424.2 267.6 424.7 268.0Q425.3 268.5 426.2 268.5ZM433.6 264.3L433.6 264.3L433.6 269.5L432.2 269.5L432.2 260.8L433.5 260.8L433.5 262.1L433.6 262.1Q433.9 261.5 434.6 261.1Q435.2 260.7 436.2 260.7L436.2 260.7Q437.1 260.7 437.7 261.0Q438.4 261.4 438.8 262.1Q439.1 262.8 439.1 264.0L439.1 264.0L439.1 269.5L437.8 269.5L437.8 264.0Q437.8 263.0 437.3 262.4Q436.7 261.9 435.8 261.9L435.8 261.9Q435.1 261.9 434.6 262.1Q434.1 262.4 433.8 263.0Q433.6 263.5 433.6 264.3ZM441.6 257.9L442.9 257.9L442.9 269.5L441.6 269.5L441.6 257.9ZM446.7 269.5L445.4 269.5L445.4 260.8L446.7 260.8L446.7 269.5ZM446.1 259.3L446.1 259.3Q445.7 259.3 445.4 259.1Q445.1 258.8 445.1 258.4L445.1 258.4Q445.1 258.0 445.4 257.8Q445.7 257.5 446.1 257.5L446.1 257.5Q446.4 257.5 446.7 257.8Q447.0 258.0 447.0 258.4L447.0 258.4Q447.0 258.8 446.7 259.1Q446.4 259.3 446.1 259.3ZM450.5 264.3L450.5 264.3L450.5 269.5L449.2 269.5L449.2 260.8L450.5 260.8L450.5 262.1L450.6 262.1Q450.9 261.5 451.5 261.1Q452.1 260.7 453.1 260.7L453.1 260.7Q454.0 260.7 454.7 261.0Q455.3 261.4 455.7 262.1Q456.1 262.8 456.1 264.0L456.1 264.0L456.1 269.5L454.7 269.5L454.7 264.0Q454.7 263.0 454.2 262.4Q453.7 261.9 452.7 261.9L452.7 261.9Q452.1 261.9 451.6 262.1Q451.1 262.4 450.8 263.0Q450.5 263.5 450.5 264.3ZM462.2 269.7L462.2 269.7Q460.9 269.7 460.0 269.1Q459.1 268.6 458.6 267.6Q458.1 266.5 458.1 265.2L458.1 265.2Q458.1 263.9 458.6 262.8Q459.1 261.8 460.0 261.2Q460.9 260.7 462.1 260.7L462.1 260.7Q462.7 260.7 463.4 260.9Q464.1 261.1 464.6 261.6Q465.2 262.1 465.5 263.0Q465.8 263.8 465.8 265.0L465.8 265.0L465.8 265.6L459.1 265.6L459.1 264.4L464.4 264.4Q464.4 263.7 464.2 263.1Q463.9 262.5 463.3 262.2Q462.8 261.9 462.1 261.9L462.1 261.9Q461.3 261.9 460.7 262.3Q460.1 262.7 459.8 263.3Q459.5 263.9 459.5 264.6L459.5 264.6L459.5 265.4Q459.5 266.4 459.8 267.1Q460.2 267.8 460.8 268.1Q461.4 268.5 462.2 268.5L462.2 268.5Q462.7 268.5 463.2 268.3Q463.6 268.2 463.9 267.9Q464.2 267.6 464.4 267.1L464.4 267.1L465.7 267.5Q465.5 268.1 465.0 268.6Q464.5 269.1 463.8 269.4Q463.1 269.7 462.2 269.7Z M481.9 261.5L481.9 261.5L480.5 261.5Q480.4 260.9 480.1 260.4Q479.7 260.0 479.3 259.7Q478.9 259.3 478.3 259.2Q477.8 259.0 477.2 259.0L477.2 259.0Q476.2 259.0 475.3 259.6Q474.4 260.1 473.9 261.1Q473.4 262.2 473.4 263.7L473.4 263.7Q473.4 265.2 473.9 266.2Q474.4 267.3 475.3 267.8Q476.2 268.3 477.2 268.3L477.2 268.3Q477.8 268.3 478.3 268.2Q478.9 268.0 479.3 267.7Q479.7 267.4 480.1 266.9Q480.4 266.5 480.5 265.9L480.5 265.9L481.9 265.9Q481.7 266.8 481.3 267.5Q480.9 268.2 480.3 268.7Q479.6 269.1 478.9 269.4Q478.1 269.7 477.2 269.7L477.2 269.7Q475.7 269.7 474.6 268.9Q473.4 268.2 472.7 266.9Q472.1 265.5 472.1 263.7L472.1 263.7Q472.1 261.8 472.7 260.5Q473.4 259.2 474.6 258.4Q475.7 257.7 477.2 257.7L477.2 257.7Q478.1 257.7 478.9 258.0Q479.6 258.2 480.3 258.7Q480.9 259.2 481.3 259.9Q481.7 260.6 481.9 261.5ZM487.5 269.7L487.5 269.7Q486.4 269.7 485.5 269.1Q484.6 268.6 484.1 267.5Q483.6 266.5 483.6 265.2L483.6 265.2Q483.6 263.8 484.1 262.8Q484.6 261.8 485.5 261.2Q486.4 260.7 487.5 260.7L487.5 260.7Q488.7 260.7 489.6 261.2Q490.5 261.8 491.0 262.8Q491.5 263.8 491.5 265.2L491.5 265.2Q491.5 266.5 491.0 267.5Q490.5 268.6 489.6 269.1Q488.7 269.7 487.5 269.7ZM487.5 268.5L487.5 268.5Q488.4 268.5 489.0 268.0Q489.6 267.6 489.9 266.8Q490.1 266.1 490.1 265.2L490.1 265.2Q490.1 264.3 489.9 263.6Q489.6 262.8 489.0 262.3Q488.4 261.9 487.5 261.9L487.5 261.9Q486.6 261.9 486.1 262.3Q485.5 262.8 485.2 263.6Q484.9 264.3 484.9 265.2L484.9 265.2Q484.9 266.1 485.2 266.8Q485.5 267.6 486.1 268.0Q486.6 268.5 487.5 268.5ZM494.9 272.8L493.5 272.8L493.5 260.8L494.8 260.8L494.8 262.2L495.0 262.2Q495.1 261.9 495.4 261.6Q495.7 261.2 496.2 260.9Q496.7 260.7 497.5 260.7L497.5 260.7Q498.6 260.7 499.5 261.2Q500.3 261.8 500.8 262.8Q501.2 263.8 501.2 265.2L501.2 265.2Q501.2 266.5 500.8 267.6Q500.3 268.6 499.5 269.1Q498.6 269.7 497.5 269.7L497.5 269.7Q496.7 269.7 496.2 269.4Q495.7 269.1 495.4 268.8Q495.1 268.4 495.0 268.2L495.0 268.2L494.9 268.2L494.9 272.8ZM494.9 265.1L494.9 265.1Q494.9 266.1 495.1 266.9Q495.4 267.6 496.0 268.1Q496.5 268.5 497.4 268.5L497.4 268.5Q498.2 268.5 498.8 268.0Q499.3 267.6 499.6 266.8Q499.9 266.1 499.9 265.1L499.9 265.1Q499.9 264.2 499.6 263.5Q499.3 262.7 498.8 262.3Q498.2 261.9 497.4 261.9L497.4 261.9Q496.5 261.9 496.0 262.3Q495.4 262.7 495.1 263.4Q494.9 264.2 494.9 265.1ZM502.6 260.8L507.1 260.8L507.1 261.9L502.6 261.9L502.6 260.8ZM503.9 267.4L503.9 258.7L505.2 258.7L505.2 267Q505.2 267.6 505.4 267.8Q505.6 268.1 505.8 268.2Q506.1 268.3 506.4 268.3L506.4 268.3Q506.6 268.3 506.7 268.3Q506.9 268.3 507.0 268.3L507.0 268.3L507.2 269.5Q507.1 269.5 506.9 269.6Q506.6 269.6 506.2 269.6L506.2 269.6Q505.7 269.6 505.1 269.4Q504.6 269.1 504.2 268.6Q503.9 268.1 503.9 267.4L503.9 267.4ZM510.4 269.5L509.1 269.5L509.1 260.8L510.4 260.8L510.4 269.5ZM509.8 259.3L509.8 259.3Q509.4 259.3 509.1 259.1Q508.8 258.8 508.8 258.4L508.8 258.4Q508.8 258.0 509.1 257.8Q509.4 257.5 509.8 257.5L509.8 257.5Q510.2 257.5 510.5 257.8Q510.7 258.0 510.7 258.4L510.7 258.4Q510.7 258.8 510.5 259.1Q510.2 259.3 509.8 259.3ZM516.4 269.7L516.4 269.7Q515.2 269.7 514.3 269.1Q513.4 268.5 513.0 267.5Q512.5 266.5 512.5 265.2L512.5 265.2Q512.5 263.9 513.0 262.8Q513.5 261.8 514.4 261.2Q515.2 260.7 516.4 260.7L516.4 260.7Q517.3 260.7 518.1 261Q518.8 261.3 519.3 262.0Q519.8 262.6 519.9 263.4L519.9 263.4L518.5 263.4Q518.4 262.8 517.9 262.3Q517.3 261.9 516.4 261.9L516.4 261.9Q515.7 261.9 515.1 262.3Q514.5 262.7 514.2 263.4Q513.8 264.1 513.8 265.1L513.8 265.1Q513.8 266.1 514.2 266.9Q514.5 267.6 515.1 268.1Q515.6 268.5 516.4 268.5L516.4 268.5Q517.0 268.5 517.4 268.3Q517.8 268.1 518.1 267.8Q518.4 267.4 518.5 267.0L518.5 267.0L519.9 267.0Q519.8 267.7 519.3 268.3Q518.9 269.0 518.1 269.3Q517.4 269.7 516.4 269.7Z M365.0 288.9L363.7 288.9L363.7 280.1L365 280.1L365 281.5L365.1 281.5Q365.3 280.8 366.0 280.4Q366.6 280 367.4 280L367.4 280Q367.5 280 367.7 280.0Q368.0 280.0 368.1 280.0L368.1 280.0L368.1 281.4Q368 281.4 367.8 281.3Q367.5 281.3 367.3 281.3L367.3 281.3Q366.6 281.3 366.1 281.6Q365.6 281.8 365.3 282.3Q365.0 282.8 365.0 283.3L365.0 283.3L365.0 288.9ZM373.0 289.0L373.0 289.0Q371.8 289.0 370.9 288.5Q370.0 287.9 369.5 286.9Q369.0 285.9 369.0 284.6L369.0 284.6Q369.0 283.2 369.5 282.2Q370.0 281.2 370.8 280.6Q371.7 280.0 372.9 280.0L372.9 280.0Q373.6 280.0 374.3 280.3Q374.9 280.5 375.5 281.0Q376.0 281.5 376.3 282.3Q376.7 283.2 376.7 284.4L376.7 284.4L376.7 285.0L369.9 285.0L369.9 283.8L375.3 283.8Q375.3 283.1 375.0 282.5Q374.7 281.9 374.2 281.6Q373.6 281.2 372.9 281.2L372.9 281.2Q372.1 281.2 371.5 281.6Q370.9 282.0 370.6 282.6Q370.3 283.3 370.3 284L370.3 284L370.3 284.8Q370.3 285.8 370.7 286.4Q371.0 287.1 371.6 287.5Q372.2 287.8 373.0 287.8L373.0 287.8Q373.6 287.8 374.0 287.7Q374.4 287.5 374.7 287.2Q375.1 286.9 375.2 286.5L375.2 286.5L376.5 286.8Q376.3 287.5 375.8 288.0Q375.4 288.5 374.6 288.8Q373.9 289.0 373.0 289.0ZM384.9 282.1L384.9 282.1L383.7 282.4Q383.6 282.1 383.3 281.8Q383.1 281.6 382.8 281.4Q382.4 281.2 381.8 281.2L381.8 281.2Q381.0 281.2 380.5 281.5Q379.9 281.9 379.9 282.5L379.9 282.5Q379.9 283.0 380.3 283.3Q380.7 283.6 381.4 283.8L381.4 283.8L382.7 284.1Q383.9 284.4 384.5 284.9Q385.0 285.5 385.0 286.4L385.0 286.4Q385.0 287.2 384.6 287.8Q384.2 288.4 383.4 288.7Q382.7 289.0 381.6 289.0L381.6 289.0Q380.3 289.0 379.4 288.5Q378.6 287.9 378.3 286.8L378.3 286.8L379.6 286.5Q379.8 287.2 380.3 287.5Q380.8 287.9 381.6 287.9L381.6 287.9Q382.6 287.9 383.1 287.5Q383.7 287.1 383.7 286.5L383.7 286.5Q383.7 286.0 383.3 285.7Q383.0 285.4 382.4 285.3L382.4 285.3L380.9 284.9Q379.7 284.6 379.2 284.0Q378.6 283.4 378.6 282.5L378.6 282.5Q378.6 281.8 379.0 281.2Q379.4 280.7 380.2 280.3Q380.9 280.0 381.8 280.0L381.8 280.0Q383.1 280.0 383.8 280.6Q384.6 281.2 384.9 282.1ZM390.6 289.0L390.6 289.0Q389.4 289.0 388.5 288.5Q387.7 287.9 387.2 286.9Q386.7 285.9 386.7 284.5L386.7 284.5Q386.7 283.2 387.2 282.2Q387.7 281.1 388.5 280.6Q389.4 280.0 390.6 280.0L390.6 280.0Q391.8 280.0 392.7 280.6Q393.6 281.1 394.1 282.2Q394.6 283.2 394.6 284.5L394.6 284.5Q394.6 285.9 394.1 286.9Q393.6 287.9 392.7 288.5Q391.8 289.0 390.6 289.0ZM390.6 287.8L390.6 287.8Q391.5 287.8 392.1 287.4Q392.7 286.9 392.9 286.2Q393.2 285.4 393.2 284.5L393.2 284.5Q393.2 283.7 392.9 282.9Q392.7 282.2 392.1 281.7Q391.5 281.2 390.6 281.2L390.6 281.2Q389.7 281.2 389.1 281.7Q388.6 282.2 388.3 282.9Q388.0 283.7 388.0 284.5L388.0 284.5Q388.0 285.4 388.3 286.2Q388.6 286.9 389.1 287.4Q389.7 287.8 390.6 287.8ZM402.1 285.3L402.1 285.3L402.1 280.1L403.5 280.1L403.5 288.9L402.1 288.9L402.1 287.4L402.0 287.4Q401.7 288.1 401.1 288.5Q400.4 289.0 399.4 289.0L399.4 289.0Q398.6 289.0 398.0 288.6Q397.3 288.3 397.0 287.5Q396.6 286.8 396.6 285.7L396.6 285.7L396.6 280.1L398.0 280.1L398.0 285.6Q398.0 286.5 398.5 287.1Q399.0 287.7 399.9 287.7L399.9 287.7Q400.4 287.7 400.9 287.4Q401.4 287.2 401.8 286.6Q402.1 286.1 402.1 285.3ZM407.3 288.9L405.9 288.9L405.9 280.1L407.2 280.1L407.2 281.5L407.3 281.5Q407.5 280.8 408.2 280.4Q408.8 280 409.6 280L409.6 280Q409.7 280 409.9 280.0Q410.2 280.0 410.3 280.0L410.3 280.0L410.3 281.4Q410.2 281.4 410.0 281.3Q409.7 281.3 409.5 281.3L409.5 281.3Q408.8 281.3 408.3 281.6Q407.8 281.8 407.5 282.3Q407.3 282.8 407.3 283.3L407.3 283.3L407.3 288.9ZM415.1 289.0L415.1 289.0Q413.9 289.0 413.0 288.5Q412.1 287.9 411.7 286.9Q411.2 285.9 411.2 284.5L411.2 284.5Q411.2 283.2 411.7 282.2Q412.2 281.2 413.0 280.6Q413.9 280.0 415.1 280.0L415.1 280.0Q416.0 280.0 416.8 280.4Q417.5 280.7 418.0 281.3Q418.5 281.9 418.6 282.8L418.6 282.8L417.2 282.8Q417.1 282.2 416.5 281.7Q416.0 281.2 415.1 281.2L415.1 281.2Q414.4 281.2 413.8 281.6Q413.2 282.0 412.8 282.8Q412.5 283.5 412.5 284.5L412.5 284.5Q412.5 285.5 412.8 286.3Q413.2 287.0 413.8 287.4Q414.3 287.8 415.1 287.8L415.1 287.8Q415.7 287.8 416.1 287.7Q416.5 287.5 416.8 287.1Q417.1 286.8 417.2 286.3L417.2 286.3L418.6 286.3Q418.5 287.1 418.0 287.7Q417.6 288.3 416.8 288.7Q416.1 289.0 415.1 289.0ZM424.2 289.0L424.2 289.0Q422.9 289.0 422.0 288.5Q421.1 287.9 420.6 286.9Q420.1 285.9 420.1 284.6L420.1 284.6Q420.1 283.2 420.6 282.2Q421.1 281.2 422.0 280.6Q422.9 280.0 424.0 280.0L424.0 280.0Q424.7 280.0 425.4 280.3Q426.1 280.5 426.6 281.0Q427.1 281.5 427.5 282.3Q427.8 283.2 427.8 284.4L427.8 284.4L427.8 285.0L421.1 285.0L421.1 283.8L426.4 283.8Q426.4 283.1 426.1 282.5Q425.8 281.9 425.3 281.6Q424.8 281.2 424.0 281.2L424.0 281.2Q423.2 281.2 422.7 281.6Q422.1 282.0 421.8 282.6Q421.5 283.3 421.5 284L421.5 284L421.5 284.8Q421.5 285.8 421.8 286.4Q422.1 287.1 422.8 287.5Q423.4 287.8 424.2 287.8L424.2 287.8Q424.7 287.8 425.1 287.7Q425.6 287.5 425.9 287.2Q426.2 286.9 426.4 286.5L426.4 286.5L427.7 286.8Q427.5 287.5 427.0 288.0Q426.5 288.5 425.8 288.8Q425.1 289.0 424.2 289.0ZM436.0 282.1L436.0 282.1L434.8 282.4Q434.7 282.1 434.5 281.8Q434.3 281.6 433.9 281.4Q433.5 281.2 432.9 281.2L432.9 281.2Q432.1 281.2 431.6 281.5Q431.1 281.9 431.1 282.5L431.1 282.5Q431.1 283.0 431.4 283.3Q431.8 283.6 432.6 283.8L432.6 283.8L433.9 284.1Q435.0 284.4 435.6 284.9Q436.2 285.5 436.2 286.4L436.2 286.4Q436.2 287.2 435.8 287.8Q435.3 288.4 434.6 288.7Q433.8 289.0 432.8 289.0L432.8 289.0Q431.4 289.0 430.6 288.5Q429.7 287.9 429.5 286.8L429.5 286.8L430.7 286.5Q430.9 287.2 431.4 287.5Q431.9 287.9 432.8 287.9L432.8 287.9Q433.7 287.9 434.2 287.5Q434.8 287.1 434.8 286.5L434.8 286.5Q434.8 286.0 434.5 285.7Q434.2 285.4 433.5 285.3L433.5 285.3L432.0 284.9Q430.8 284.6 430.3 284.0Q429.7 283.4 429.7 282.5L429.7 282.5Q429.7 281.8 430.1 281.2Q430.6 280.7 431.3 280.3Q432.0 280.0 432.9 280.0L432.9 280.0Q434.2 280.0 435.0 280.6Q435.7 281.2 436.0 282.1Z "/></svg>